<svg width="20" height="20" viewBox="0 0 20 20" fill="none" xmlns="http://www.w3.org/2000/svg">
<path d="M18.2869 14.6216C18.2019 14.7433 18.0969 14.85 17.9761 14.935C17.8536 15.0208 14.9294 17.0083 10.5894 14.7691C9.97609 14.4533 9.73526 13.6991 10.0511 13.085C10.3678 12.4708 11.1228 12.2291 11.7353 12.5466C12.9978 13.1983 14.0444 13.355 14.8411 13.3241L10.6844 9.49165C10.4761 9.29748 10.2003 9.20415 9.92776 9.20915C9.65109 9.22081 9.39442 9.34165 9.20609 9.54998C8.56359 10.2575 7.68609 10.6691 6.73526 10.7091C5.78692 10.7466 4.87192 10.4108 4.17109 9.75748C4.13609 9.72498 4.10359 9.69081 4.07359 9.65498L1.14192 6.22665C0.692755 5.70248 0.731922 4.88498 1.27942 4.46415C2.06526 3.86081 2.79442 4.31248 3.04109 4.60248L5.91776 7.96665C6.11859 8.13498 6.35609 8.21831 6.62942 8.21081C6.90692 8.19915 7.16442 8.07831 7.35276 7.86998C7.99442 7.16248 8.87026 6.75081 9.82192 6.71081C10.7711 6.66331 11.6869 7.00831 12.3828 7.65748L16.6569 11.5991C16.7103 10.7783 16.5753 9.67831 15.8928 8.33415C15.5803 7.71831 15.8244 6.96332 16.4411 6.65331C17.2503 6.24748 17.9019 6.76748 18.1228 7.20165C20.3369 11.5633 18.3719 14.4975 18.2869 14.62V14.6216Z" fill="white"/>
</svg>
