<svg width="200" height="200" viewBox="0 0 200 200" fill="none" xmlns="http://www.w3.org/2000/svg">
<path d="M100 176.905L25.0937 98.7803C18.5104 92.2021 14.1653 83.7182 12.6747 74.5318C11.1841 65.3454 12.6236 55.9229 16.7891 47.6006C19.9301 41.3203 24.5185 35.8762 30.1761 31.7169C35.8338 27.5576 42.3987 24.8021 49.3301 23.6775C56.2615 22.553 63.3609 23.0914 70.0433 25.2486C76.7258 27.4058 82.8 31.1199 87.7656 36.085L100 48.3115L112.234 36.085C117.2 31.1199 123.274 27.4058 129.957 25.2486C136.639 23.0914 143.738 22.553 150.67 23.6775C157.601 24.8021 164.166 27.5576 169.824 31.7169C175.481 35.8762 180.07 41.3203 183.211 47.6006C187.371 55.9197 188.808 65.3366 187.319 74.5178C185.83 83.6989 181.49 92.179 174.914 98.7568L100 176.905Z" stroke="black" stroke-width="12.5" stroke-linecap="round" stroke-linejoin="round"/>
<path d="M100 48.3125L122.945 70.9688C123.635 71.6534 124.145 72.4989 124.427 73.4291C124.71 74.3593 124.756 75.3451 124.564 76.2979C124.371 77.2507 123.944 78.1407 123.322 78.8878C122.7 79.6349 121.902 80.2158 121 80.5781L82.8126 95.8828C81.7645 96.3039 80.8603 97.0185 80.2085 97.9409C79.5567 98.8633 79.1849 99.9542 79.1379 101.083C79.0909 102.211 79.3706 103.329 79.9434 104.303C80.5163 105.276 81.3579 106.063 82.3672 106.57L113.031 121.875C114.293 122.506 115.284 123.571 115.824 124.874C116.363 126.177 116.415 127.631 115.969 128.969L100 176.906" stroke="black" stroke-width="12.5" stroke-linecap="round" stroke-linejoin="round"/>
</svg>
