<svg width="200" height="200" viewBox="0 0 200 200" fill="none" xmlns="http://www.w3.org/2000/svg">
<path d="M146.337 187.891H53.6655L41.6187 133.445C41.3536 132.265 41.3319 131.043 41.5549 129.855C41.7778 128.666 42.2408 127.535 42.9155 126.531C43.5276 125.592 44.36 124.816 45.3404 124.271C46.3207 123.726 47.4193 123.429 48.5405 123.406H151.462C152.584 123.429 153.682 123.726 154.663 124.271C155.643 124.816 156.475 125.592 157.087 126.531C157.762 127.535 158.225 128.666 158.448 129.855C158.671 131.043 158.649 132.265 158.384 133.445L146.337 187.891Z" stroke="white" stroke-width="12.5" stroke-linecap="round" stroke-linejoin="round"/>
<path d="M12.1094 187.891H187.891" stroke="white" stroke-width="12.5" stroke-linecap="round" stroke-linejoin="round"/>
<path d="M88.2812 152.734C88.2812 155.842 89.5159 158.823 91.7136 161.021C93.9113 163.218 96.892 164.453 100 164.453C103.108 164.453 106.089 163.218 108.286 161.021C110.484 158.823 111.719 155.842 111.719 152.734C111.719 149.626 110.484 146.646 108.286 144.448C106.089 142.25 103.108 141.016 100 141.016C96.892 141.016 93.9113 142.25 91.7136 144.448C89.5159 146.646 88.2812 149.626 88.2812 152.734Z" stroke="white" stroke-width="12.5" stroke-linecap="round" stroke-linejoin="round"/>
<path d="M72.2266 27.9766C77.2178 33.1515 83.201 37.2673 89.8186 40.0781C96.4362 42.8889 103.552 44.337 110.742 44.3359C118.03 44.341 125.243 42.8576 131.938 39.9766" stroke="white" stroke-width="12.5" stroke-linecap="round" stroke-linejoin="round"/>
<path d="M67.7734 44.3359C67.7734 48.568 68.607 52.7586 70.2265 56.6685C71.8461 60.5784 74.2199 64.131 77.2124 67.1236C80.2049 70.1161 83.7575 72.4899 87.6674 74.1094C91.5773 75.7289 95.7679 76.5625 100 76.5625C104.232 76.5625 108.423 75.7289 112.333 74.1094C116.242 72.4899 119.795 70.1161 122.788 67.1236C125.78 64.131 128.154 60.5784 129.773 56.6685C131.393 52.7586 132.227 48.568 132.227 44.3359C132.227 35.7889 128.831 27.592 122.788 21.5483C116.744 15.5047 108.547 12.1094 100 12.1094C91.453 12.1094 83.256 15.5047 77.2124 21.5483C71.1687 27.592 67.7734 35.7889 67.7734 44.3359Z" stroke="white" stroke-width="12.5" stroke-linecap="round" stroke-linejoin="round"/>
<path d="M139.062 105.858C134.169 100.326 128.155 95.8973 121.421 92.8638C114.687 89.8304 107.386 88.2617 100 88.2617C92.6142 88.2617 85.3127 89.8304 78.5786 92.8638C71.8445 95.8973 65.8315 100.326 60.9375 105.858" stroke="white" stroke-width="12.5" stroke-linecap="round" stroke-linejoin="round"/>
</svg>
