<svg width="200" height="200" viewBox="0 0 200 200" fill="none" xmlns="http://www.w3.org/2000/svg">
<path d="M70.7031 158.867H47.2656C44.1577 158.867 41.1769 157.633 38.9792 155.435C36.7816 153.237 35.5469 150.257 35.5469 147.148V88.5547" stroke="white" stroke-width="12.5" stroke-linecap="round" stroke-linejoin="round"/>
<path d="M12.1094 76.8359L80.7109 18.789C82.827 16.9983 85.5094 16.0156 88.2812 16.0156C91.0531 16.0156 93.7359 16.9983 95.8516 18.789L152.719 66.9062" stroke="white" stroke-width="12.5" stroke-linecap="round" stroke-linejoin="round"/>
<path d="M129.297 18.2422H152.734V41.6797" stroke="white" stroke-width="12.5" stroke-linecap="round" stroke-linejoin="round"/>
<path d="M155.367 139.062L184.172 110.257C186.554 107.874 187.893 104.642 187.893 101.273C187.893 97.9023 186.554 94.6711 184.172 92.2883C181.789 89.9055 178.557 88.5664 175.187 88.5664C171.817 88.5664 168.586 89.9055 166.203 92.2883L137.422 121.093C130.638 118.436 123.146 118.196 116.206 120.412C109.266 122.628 103.301 127.166 99.3122 133.263C95.324 139.359 93.5552 146.643 94.3052 153.89C95.0544 161.137 98.2755 167.905 103.427 173.056C108.579 178.208 115.346 181.429 122.593 182.178C129.84 182.927 137.123 181.159 143.22 177.171C149.317 173.182 153.854 167.217 156.071 160.277C158.287 153.337 158.047 145.845 155.39 139.062H155.367Z" stroke="white" stroke-width="12.5" stroke-linecap="round" stroke-linejoin="round"/>
<path d="M126.367 153.516C124.749 153.516 123.438 152.204 123.438 150.586C123.438 148.968 124.749 147.656 126.367 147.656" stroke="white" stroke-width="12.5"/>
<path d="M126.367 153.516C127.985 153.516 129.297 152.204 129.297 150.586C129.297 148.968 127.985 147.656 126.367 147.656" stroke="white" stroke-width="12.5"/>
</svg>
